<?xml version="1.0" encoding="UTF-8" standalone="no"?>
<!-- Created with Inkscape (http://www.inkscape.org/) -->

<svg
   width="65.195847mm"
   height="24.271265mm"
   viewBox="0 0 65.195847 24.271265"
   version="1.1"
   id="svg2794"
   inkscape:version="1.1 (c68e22c387, 2021-05-23)"
   sodipodi:docname="header.svg"
   xmlns:inkscape="http://www.inkscape.org/namespaces/inkscape"
   xmlns:sodipodi="http://sodipodi.sourceforge.net/DTD/sodipodi-0.dtd"
   xmlns="http://www.w3.org/2000/svg"
   xmlns:svg="http://www.w3.org/2000/svg">
  <sodipodi:namedview
     id="namedview2796"
     pagecolor="#ffffff"
     bordercolor="#666666"
     borderopacity="1.0"
     inkscape:pageshadow="2"
     inkscape:pageopacity="0.0"
     inkscape:pagecheckerboard="0"
     inkscape:document-units="mm"
     showgrid="true"
     inkscape:snap-midpoints="true"
     inkscape:snap-bbox="false"
     inkscape:bbox-nodes="false"
     inkscape:snap-grids="true"
     inkscape:snap-object-midpoints="false"
     inkscape:snap-others="true"
     inkscape:object-nodes="false"
     inkscape:snap-nodes="false"
     inkscape:snap-to-guides="true"
     showguides="false"
     inkscape:zoom="1.9590374"
     inkscape:cx="-67.124805"
     inkscape:cy="82.693676"
     inkscape:window-width="1920"
     inkscape:window-height="1011"
     inkscape:window-x="0"
     inkscape:window-y="0"
     inkscape:window-maximized="1"
     inkscape:current-layer="layer1">
    <inkscape:grid
       type="xygrid"
       id="grid3424"
       originx="-343.89006"
       originy="-71.648234" />
  </sodipodi:namedview>
  <defs
     id="defs2791" />
  <g
     inkscape:label="Layer 1"
     inkscape:groupmode="layer"
     id="layer1"
     transform="translate(-343.89006,-71.648236)">
    <path
       style="fill:#999999;fill-opacity:1;fill-rule:evenodd;stroke:none;stroke-width:0.0627893px;stroke-linecap:butt;stroke-linejoin:miter;stroke-opacity:1"
       d="m 343.89006,76.272151 22.59602,-0.0014 c -0.13074,0.334204 -0.20015,1.056048 -0.20015,1.056048 h -22.39466 z"
       id="path3347"
       inkscape:connector-curvature="0"
       sodipodi:nodetypes="ccccc" />
    <path
       style="fill:#999999;fill-opacity:1;fill-rule:evenodd;stroke:none;stroke-width:0.056227px;stroke-linecap:butt;stroke-linejoin:miter;stroke-opacity:1"
       d="m 343.89006,79.065784 20.53623,0.01658 6e-4,1.058501 -20.53585,-0.0098 z"
       id="path3347-3"
       inkscape:connector-curvature="0"
       sodipodi:nodetypes="ccccc" />
    <path
       style="fill:#999999;fill-opacity:1;fill-rule:evenodd;stroke:none;stroke-width:0.0720989px;stroke-linecap:butt;stroke-linejoin:miter;stroke-opacity:1"
       d="m 343.89006,81.986015 h 25.60855 l 0.001,1.040955 -25.60816,-2.04e-4 z"
       id="path3347-3-6"
       inkscape:connector-curvature="0"
       sodipodi:nodetypes="ccccc" />
    <path
       style="fill:#999999;fill-opacity:1;fill-rule:evenodd;stroke:none;stroke-width:0.0877135px;stroke-linecap:butt;stroke-linejoin:miter;stroke-opacity:1"
       d="m 343.89006,84.648872 h 32.20916 l 0.002,1.022286 -32.20858,-2.04e-4 z"
       id="path3347-3-6-7"
       inkscape:connector-curvature="0"
       sodipodi:nodetypes="ccccc" />
    <path
       style="fill:#999999;fill-opacity:1;fill-rule:evenodd;stroke:none;stroke-width:0.0998402px;stroke-linecap:butt;stroke-linejoin:miter;stroke-opacity:1"
       d="m 343.89006,87.563683 h 37.62193 l 0.002,1.008602 -37.62116,-2.03e-4 z"
       id="path3347-3-6-7-5"
       inkscape:connector-curvature="0"
       sodipodi:nodetypes="ccccc" />
    <path
       id="path3417"
       style="fill:#00d500;fill-opacity:1;fill-rule:evenodd;stroke:none;stroke-width:0.101779px;stroke-linecap:butt;stroke-linejoin:miter;stroke-opacity:1"
       d="m 353.45915,78.126365 c 0.34532,-0.381671 0.45437,-0.49072 0.61794,-0.872391 0.16358,-0.381671 0.2181,-0.399846 0.2908,-0.799692 0.0727,-0.399846 0.0545,-0.418021 0.0363,-0.836041 -0.0182,-0.41802 -0.0363,-0.472545 -0.12722,-0.836041 -0.0909,-0.363497 -0.0363,-0.199923 -0.23628,-0.599768 -0.19992,-0.399847 -0.18174,-0.363497 -0.25444,-0.49072 -0.0727,-0.127224 -0.10905,-0.49072 -0.18175,-0.109049 -0.0727,0.381671 -0.12723,0.98144 -0.12723,1.235887 0,0.254447 -0.0909,0.527069 -0.0727,1.017789 0.0182,0.490719 0.0182,0.599768 0.0363,0.981439 0.0182,0.381671 0.0182,1.308587 0.0182,1.308587 z m 0.47795,9.193742 -0.19277,-3.958271 c 0.32907,0.06175 0.63377,0.106072 0.936,0.369219 0.28214,0.245646 0.46246,0.524341 0.60723,0.869117 0.14477,0.344776 0.15996,0.9788 0.072,1.344442 -0.0879,0.365641 -0.38892,0.755057 -0.6502,0.998166 -0.26128,0.243109 -0.56128,0.267498 -0.77229,0.377327 z m -1.06667,0.359842 c -0.94715,0.147177 -1.84613,-0.140947 -2.65766,-0.539064 -0.27711,-0.135943 -0.30891,-0.223212 -0.70099,-0.605012 -0.39209,-0.381799 -0.74989,-1.100377 -0.76324,-1.927692 -0.0134,-0.827314 0.47181,-1.837567 1.12307,-2.43512 0.70078,-0.627132 1.51037,-0.986604 2.40849,-1.469233 l 0.10417,1.769426 c 0,0 -1.05162,0.373552 -1.41953,0.819521 -0.36412,0.441379 -0.59721,1.105985 -0.54508,1.675793 0.0414,0.452654 0.28337,1.0242 0.59742,1.352811 0.23624,0.2472 0.67986,0.630786 0.88575,0.51741 0.20652,-0.263524 -0.81115,-1.256638 -0.76814,-1.916464 0.0272,-0.416992 0.32696,-0.970256 0.72286,-1.289159 0.19043,-0.153388 0.71034,-0.18312 0.71034,-0.18312 z m -2.35183,3.097219 c 1.06193,0.827321 1.43483,-1.40585 0.24996,-1.421992 -0.97939,-0.272918 -1.86584,0.685452 -1.73488,1.642563 -0.0198,0.907438 0.79442,1.519124 1.61478,1.668137 1.27658,0.33843 2.85784,-0.279295 3.22102,-1.634491 0.21143,-0.807296 0.0847,-1.651481 0.11903,-2.477532 1.29389,-0.544722 2.59135,-1.695817 2.51127,-3.218722 -0.24712,-2.842359 -2.79191,-2.902137 -2.79191,-2.902137 l -0.18201,-2.592478 c 0.70429,-0.66357 1.49978,-1.276454 1.85777,-2.212438 0.63402,-1.332375 0.45466,-2.939751 -0.14795,-4.250715 -0.39843,-0.624008 -0.74006,-1.503932 -1.48578,-1.729127 -1.04168,0.0253 -1.24683,1.243224 -1.42104,2.04762 -0.40599,1.814186 -0.18931,3.677606 -0.15241,5.514936 -1.70508,1.077933 -3.70437,2.122921 -4.49281,4.102945 -0.5281,1.30984 -0.22407,2.907177 0.81443,3.883973 1.3126,1.700209 4.31754,1.47607 4.31754,1.47607 0,0 0.078,1.259527 0.12647,1.969064 -0.11693,0.831256 -1.09109,1.25631 -1.8547,1.206285 -0.69716,-0.01371 -1.61347,-0.74526 -1.04181,-1.461079 0.27763,-0.566339 1.11803,0.07554 0.47303,0.389118 z"
       inkscape:connector-curvature="0"
       sodipodi:nodetypes="csssssssssscccssssccssscccssscssccccccccccccccccccccccc" />
    <path
       style="fill:#0e55d2;fill-opacity:1;fill-rule:evenodd;stroke:none;stroke-width:0.101779px;stroke-linecap:butt;stroke-linejoin:miter;stroke-opacity:1"
       d="m 361.29039,80.94346 c -0.89053,0.861547 -1.71665,3.419474 -1.75188,4.51178 0.036,0.910639 -0.0483,2.468306 0.78213,3.727371 0.87202,1.469926 3.14024,3.028685 3.59991,4.366293 0.24861,0.766737 0.44138,2.370597 0.44138,2.370597 l 0.72645,-0.04758 c 0,0 -0.0694,-8.843355 0.0125,-13.228219 0.008,-0.681854 0.0162,-1.363706 0.0244,-2.04556 1.10498,0.684461 3.56133,-0.110211 4.31197,-0.722449 0.62823,-0.537995 1.30422,-1.282056 1.33556,-2.091238 0.029,-0.749519 -0.51509,-1.661483 -1.27262,-1.779569 -1.1535,-0.179809 -2.44977,0.08985 -3.42755,0.728838 -0.85344,0.557723 -1.61604,1.439481 -1.7837,2.484564 l -0.0361,11.19425 c -0.72131,-0.126728 -1.42286,-0.447727 -2.05375,-0.817866 -0.80629,-0.393924 -1.3304,-1.166633 -1.65344,-1.979883 -1.15505,-2.923653 -0.002,-4.114543 0.7447,-6.671325 z"
       id="path3419"
       inkscape:connector-curvature="0"
       sodipodi:nodetypes="cccccccccssaccccc" />
    <g
       id="g4637"
       style="fill:#ffc600;fill-opacity:1"
       transform="translate(231.69497,27.19281)">
      <path
         sodipodi:nodetypes="ccccccccccccccccc"
         inkscape:connector-curvature="0"
         id="path3421"
         d="m 140.30248,50.988079 0.51798,-0.0091 -0.009,-1.835655 0.66338,0.01817 V 50.9608 l 1.35402,0.0091 -0.009,-1.844743 0.67247,0.01817 -0.0273,7.624331 h -0.6452 v -5.179819 l -1.35402,-0.0091 -0.009,5.197995 -0.63612,-0.0091 -0.009,-5.197994 -0.29988,-0.0091 z"
         style="fill:#ffc600;fill-opacity:1;fill-rule:evenodd;stroke:none;stroke-width:0.101779px;stroke-linecap:butt;stroke-linejoin:miter;stroke-opacity:1" />
      <path
         sodipodi:nodetypes="cccccccccc"
         inkscape:connector-curvature="0"
         id="path3423"
         d="m 145.49139,49.16151 0.71791,-0.0091 1.21771,1.74478 1.19045,-1.753868 0.73608,0.02726 -1.58121,2.308201 -0.009,5.279781 h -0.69064 l 0.009,-5.279781 z"
         style="fill:#ffc600;fill-opacity:1;fill-rule:evenodd;stroke:none;stroke-width:0.101779px;stroke-linecap:butt;stroke-linejoin:miter;stroke-opacity:1" />
      <path
         sodipodi:nodetypes="ccasccaccacccccc"
         inkscape:connector-curvature="0"
         id="path3425"
         d="m 153.29747,49.152424 -0.009,0.581593 c -0.36519,-0.0034 -0.78666,-0.09378 -1.09957,0.09996 -0.24574,0.152147 -0.45701,0.407942 -0.45521,0.737977 0.002,0.381326 0.0574,0.761519 0.2698,1.078018 0.42021,0.730312 0.80536,1.484651 1.28059,2.179735 0.44709,0.669275 0.29358,1.746992 -0.22466,2.330541 -0.49364,0.555856 -2.17911,0.474759 -2.17911,0.474759 V 56.15881 c 0,0 1.21492,0.05569 1.67916,-0.26966 0.23083,-0.161769 0.4182,-0.447401 0.41094,-0.739041 0.0218,-0.309371 -0.0444,-0.617976 -0.20611,-0.884258 -0.47439,-0.922714 -1.23524,-2.090097 -1.45873,-2.749568 -0.37153,-0.961568 -0.10344,-1.966543 1.09445,-2.319036 0.29428,-0.08137 0.59712,-0.04426 0.89754,-0.04482 z"
         style="fill:#ffc600;fill-opacity:1;fill-rule:evenodd;stroke:none;stroke-width:0.101779px;stroke-linecap:butt;stroke-linejoin:miter;stroke-opacity:1" />
      <path
         inkscape:connector-curvature="0"
         id="path3427"
         d="m 155.54206,49.152424 0.6452,0.0091 -0.0107,7.605111 -0.61045,0.01285 z"
         style="fill:#ffc600;fill-opacity:1;fill-rule:evenodd;stroke:none;stroke-width:0.101779px;stroke-linecap:butt;stroke-linejoin:miter;stroke-opacity:1" />
      <path
         inkscape:connector-curvature="0"
         id="path3429"
         d="m 158.63767,49.158516 h 0.66185 l -0.006,1.657847 1.50363,-1.664273 0.81607,0.0064 -1.70926,1.889175 2.03055,5.731782 -0.68113,-0.0064 -1.93416,-5.519731 -0.0257,5.519731 -0.65543,-0.0064 z"
         style="fill:#ffc600;fill-opacity:1;fill-rule:evenodd;stroke:none;stroke-width:0.101779px;stroke-linecap:butt;stroke-linejoin:miter;stroke-opacity:1" />
      <path
         inkscape:connector-curvature="0"
         id="path3431"
         d="m 163.88752,49.145665 2.06909,0.01285 0.006,0.591171 h -1.40081 l -0.0193,1.246598 1.33656,0.0064 0.2506,0.578319 -1.58716,0.0064 0.006,4.594421 h 1.38797 l 0.006,0.610449 -2.05624,-0.0064 0.006,-5.211296 -0.30844,0.01928 -0.20562,-0.591171 0.49478,0.0064 z"
         style="fill:#ffc600;fill-opacity:1;fill-rule:evenodd;stroke:none;stroke-width:0.101779px;stroke-linecap:butt;stroke-linejoin:miter;stroke-opacity:1" />
      <path
         d="m 168.88033,49.74326 c 0,0 0.87534,0.169102 1.2462,0.420536 0.33407,0.226495 0.68014,0.469861 0.86146,0.840294 0.42661,0.774079 0.32903,1.839837 -0.12543,2.565423 -0.39459,0.629987 -1.95652,1.070181 -1.95652,1.070181 z m -0.69398,-0.578319 0.0386,7.608106 h 0.68113 c -0.009,-0.526913 -0.0171,-1.053825 -0.0257,-1.580738 l 1.99199,1.567886 h 0.97672 l -2.05625,-1.696401 c 0.92151,-0.378187 1.93356,-1.245427 2.097,-2.140519 0.20242,-0.961929 -0.13023,-1.801153 -0.59407,-2.555664 -0.94752,-1.149371 -1.84084,-1.146531 -3.10937,-1.20267 z"
         style="fill:#ffc600;fill-opacity:1;fill-rule:evenodd;stroke:none;stroke-width:0.101779px;stroke-linecap:butt;stroke-linejoin:miter;stroke-opacity:1"
         id="path3435"
         inkscape:connector-curvature="0" />
    </g>
    <g
       id="g4643"
       transform="translate(231.69497,27.19281)">
      <path
         sodipodi:nodetypes="ccccsccaassc"
         inkscape:connector-curvature="0"
         id="path3437"
         d="m 156.50431,57.428475 0.0514,0.565467 c -0.73224,0.02051 -1.42708,0.276386 -2.06333,0.682345 -1.04384,0.60983 -1.68254,2.304915 -1.07324,3.796938 0.29798,0.849916 0.94591,1.414303 1.69501,1.686534 0.57193,0.207841 0.95725,0.218181 1.43683,0.307938 l -0.0383,0.572793 c -1.13602,-0.09381 -2.08694,-0.47048 -2.85874,-1.147795 -0.49407,-0.433586 -0.83131,-1.075775 -0.96617,-1.719136 -0.18637,-0.889051 -0.11471,-1.898218 0.26869,-2.711843 0.28143,-0.59725 0.78009,-1.085678 1.3395,-1.437126 0.63806,-0.400857 1.50544,-0.601927 2.20829,-0.596115 z"
         style="fill:#ff0014;fill-opacity:1;fill-rule:evenodd;stroke:none;stroke-width:0.101779px;stroke-linecap:butt;stroke-linejoin:miter;stroke-opacity:1" />
      <path
         inkscape:connector-curvature="0"
         id="path3439"
         d="m 158.57983,57.396346 0.65543,0.0064 v 1.889175 h 1.36226 l -0.006,-1.908452 0.66186,0.01928 v 7.620957 h -0.66828 v -5.140611 l -1.35584,0.0257 0.006,5.095632 h -0.6747 l 0.0193,-5.114909 -0.28916,-0.0064 -0.24417,-0.597597 0.55261,0.0064 z"
         style="fill:#ff0014;fill-opacity:1;fill-rule:evenodd;stroke:none;stroke-width:0.101779px;stroke-linecap:butt;stroke-linejoin:miter;stroke-opacity:1" />
      <path
         d="m 164.05696,59.057693 c -0.74,0.991965 -0.92821,2.500687 -0.39404,3.691756 0.812,1.675529 3.06379,2.604572 4.6377,2.274654 1.74377,-0.444558 3.11203,-1.865993 3.2732,-3.599393 0.0871,-2.893346 -2.46989,-4.205797 -4.01395,-4.132364 -1.85837,0.06835 -2.60485,0.561497 -3.50291,1.765347 z m -0.0937,2.020254 c -0.0406,1.383995 1.00111,2.704699 2.33819,3.244969 1.48587,0.485909 2.97288,0.02776 3.91061,-1.141464 1.08403,-1.305396 0.8275,-2.977627 -0.0363,-3.996816 -2.37538,-2.858805 -6.14033,-0.569365 -6.21254,1.893311 z"
         style="fill:#ff0014;fill-opacity:1;fill-rule:evenodd;stroke:none;stroke-width:0.101779px;stroke-linecap:butt;stroke-linejoin:miter;stroke-opacity:1"
         id="path3443"
         inkscape:connector-curvature="0" />
      <path
         d="m 174.32092,58.060647 c 0,0 0.87534,0.169102 1.24619,0.420535 0.33408,0.226496 0.68015,0.469862 0.86147,0.840294 0.4266,0.77408 0.32903,1.839837 -0.12544,2.565423 -0.39458,0.629987 -1.95652,1.070181 -1.95652,1.070181 z m -0.69398,-0.578319 0.0386,7.608106 h 0.68113 c -0.009,-0.526913 -0.0171,-1.053825 -0.0257,-1.580738 l 1.99199,1.567886 h 0.97671 l -2.05624,-1.696401 c 0.9215,-0.378187 1.93355,-1.245427 2.097,-2.14052 0.20242,-0.961929 -0.13024,-1.801153 -0.59407,-2.555663 -0.94752,-1.149371 -1.84084,-1.146532 -3.10937,-1.20267 z"
         style="fill:#ff0014;fill-opacity:1;fill-rule:evenodd;stroke:none;stroke-width:0.101779px;stroke-linecap:butt;stroke-linejoin:miter;stroke-opacity:1"
         id="path3435-3"
         inkscape:connector-curvature="0" />
    </g>
  </g>
</svg>
